# Blender 4.2.1 LTS
# www.blender.org
mtllib Croqui_Viga.mtl
o Plane
v 0.058123 1.655323 1.043544
v -0.000000 -1.292233 1.066212
v 0.058123 1.652374 1.003252
v -0.000000 -1.122413 0.946996
v 0.027387 1.457697 0.985554
v 0.000000 0.939105 0.905983
v 0.000000 0.504376 0.840364
v 0.000000 0.172177 0.787048
v 0.000000 0.077849 0.750137
v 0.000000 -0.004175 0.705024
v 0.000000 -0.069795 0.655809
v 0.000000 -0.139515 0.590190
v 0.000000 -0.225641 0.471254
v 0.000000 -0.278957 0.327712
v 0.000000 -0.332272 0.159562
v 0.000000 -0.385588 -0.024993
v 0.000000 -0.422499 -0.275167
v 0.000000 -0.434803 -0.443317
v 0.000000 -0.438904 -0.574556
v 0.000000 -0.484017 -0.578657
v 0.000000 -0.488119 -0.406406
v 0.000000 -0.512726 -0.201345
v 0.000000 -0.545536 0.007817
v 0.000000 -0.607054 0.196473
v 0.000000 -0.693180 0.393331
v 0.000000 -0.754698 0.532773
v 0.000000 -0.824419 0.647607
v 0.000000 -0.959759 0.807554
v 0.092788 1.655323 1.043544
v 0.140665 -1.292233 1.066212
v 0.092788 1.652374 1.003252
v 0.140665 -1.122413 0.946996
v 0.092788 1.457697 0.985554
v 0.140666 0.939105 0.905983
v 0.140666 0.504376 0.840364
v 0.140666 0.172177 0.787048
v 0.140666 0.077849 0.750137
v 0.140666 -0.004175 0.705024
v 0.140666 -0.069795 0.655809
v 0.140666 -0.139515 0.590190
v 0.140666 -0.225641 0.471254
v 0.140666 -0.278957 0.327712
v 0.140666 -0.332272 0.159562
v 0.140666 -0.385588 -0.024993
v 0.140666 -0.422499 -0.275167
v 0.140666 -0.434803 -0.443317
v 0.140666 -0.438904 -0.574556
v 0.140666 -0.484017 -0.578657
v 0.140666 -0.488119 -0.406406
v 0.140666 -0.512726 -0.201345
v 0.140666 -0.545536 0.007817
v 0.140666 -0.607054 0.196473
v 0.140666 -0.693180 0.393331
v 0.140666 -0.754698 0.532773
v 0.140666 -0.824419 0.647607
v 0.140666 -0.959759 0.807554
vn -1.0000 -0.0000 -0.0000
vn -0.9875 0.1570 -0.0115
vn -0.8053 -0.0481 0.5909
vn -0.9556 0.0211 0.2939
vn 1.0000 -0.0000 -0.0000
vn 0.8241 0.1595 -0.5435
vn 0.9692 0.0176 0.2455
vn -0.0000 -0.9929 -0.1191
vn -0.0000 0.3644 -0.9312
vn -0.0000 -0.9879 -0.1550
vn -0.0000 0.4819 -0.8762
vn -0.0000 -0.9507 -0.3100
vn -0.0000 0.6000 -0.8000
vn -0.0000 -0.9162 -0.4008
vn -0.0000 0.6854 -0.7282
vn -0.0000 -0.9149 -0.4036
vn -0.0000 0.8099 -0.5865
vn -0.0000 -0.8548 -0.5190
vn -0.0000 0.9374 -0.3482
vn -0.0000 -0.7634 -0.6459
vn -0.0000 0.9532 -0.3022
vn -0.0000 0.9973 -0.0730
vn -0.0000 -0.6509 -0.7592
vn -0.0000 0.9607 -0.2775
vn -0.0000 0.0077 1.0000
vn -0.0000 0.9893 -0.1460
vn -0.0000 -0.5746 -0.8185
vn -0.0000 0.0905 -0.9959
vn -0.0000 0.9995 -0.0312
vn -0.0000 0.1517 -0.9884
vn -0.0000 0.1493 -0.9888
vn -0.0000 -0.9997 -0.0238
vn -0.0000 0.1585 -0.9874
vt 0.000000 0.000000
s 0
f 17/1/1 18/1/1 21/1/1
f 1/1/2 3/1/2 5/1/2
f 1/1/3 5/1/3 6/1/3
f 4/1/1 2/1/1 8/1/1
f 2/1/4 1/1/4 6/1/4
f 8/1/1 2/1/1 7/1/1
f 28/1/1 4/1/1 9/1/1
f 6/1/1 7/1/1 2/1/1
f 27/1/1 28/1/1 11/1/1
f 4/1/1 8/1/1 9/1/1
f 28/1/1 9/1/1 10/1/1
f 26/1/1 27/1/1 12/1/1
f 28/1/1 10/1/1 11/1/1
f 25/1/1 26/1/1 13/1/1
f 27/1/1 11/1/1 12/1/1
f 24/1/1 25/1/1 14/1/1
f 26/1/1 12/1/1 13/1/1
f 25/1/1 13/1/1 14/1/1
f 23/1/1 24/1/1 15/1/1
f 24/1/1 14/1/1 15/1/1
f 22/1/1 23/1/1 16/1/1
f 23/1/1 15/1/1 16/1/1
f 19/1/1 20/1/1 18/1/1
f 20/1/1 21/1/1 18/1/1
f 21/1/1 22/1/1 17/1/1
f 22/1/1 16/1/1 17/1/1
f 45/1/5 49/1/5 46/1/5
f 29/1/5 33/1/5 31/1/5
f 29/1/6 34/1/6 33/1/6
f 32/1/5 36/1/5 30/1/5
f 30/1/7 34/1/7 29/1/7
f 36/1/5 35/1/5 30/1/5
f 56/1/5 37/1/5 32/1/5
f 34/1/5 30/1/5 35/1/5
f 55/1/5 39/1/5 56/1/5
f 32/1/5 37/1/5 36/1/5
f 56/1/5 38/1/5 37/1/5
f 54/1/5 40/1/5 55/1/5
f 56/1/5 39/1/5 38/1/5
f 53/1/5 41/1/5 54/1/5
f 55/1/5 40/1/5 39/1/5
f 52/1/5 42/1/5 53/1/5
f 54/1/5 41/1/5 40/1/5
f 53/1/5 42/1/5 41/1/5
f 51/1/5 43/1/5 52/1/5
f 52/1/5 43/1/5 42/1/5
f 50/1/5 44/1/5 51/1/5
f 51/1/5 44/1/5 43/1/5
f 47/1/5 46/1/5 48/1/5
f 48/1/5 46/1/5 49/1/5
f 49/1/5 45/1/5 50/1/5
f 50/1/5 45/1/5 44/1/5
f 21/1/8 49/1/8 50/1/8 22/1/8
f 8/1/9 36/1/9 37/1/9 9/1/9
f 22/1/10 50/1/10 51/1/10 23/1/10
f 9/1/11 37/1/11 38/1/11 10/1/11
f 23/1/12 51/1/12 52/1/12 24/1/12
f 10/1/13 38/1/13 39/1/13 11/1/13
f 24/1/14 52/1/14 53/1/14 25/1/14
f 11/1/15 39/1/15 40/1/15 12/1/15
f 25/1/16 53/1/16 54/1/16 26/1/16
f 12/1/17 40/1/17 41/1/17 13/1/17
f 26/1/18 54/1/18 55/1/18 27/1/18
f 13/1/19 41/1/19 42/1/19 14/1/19
f 27/1/20 55/1/20 56/1/20 28/1/20
f 14/1/21 42/1/21 43/1/21 15/1/21
f 1/1/22 29/1/22 31/1/22 3/1/22
f 28/1/23 56/1/23 32/1/23 4/1/23
f 15/1/24 43/1/24 44/1/24 16/1/24
f 2/1/25 30/1/25 29/1/25 1/1/25
f 16/1/26 44/1/26 45/1/26 17/1/26
f 4/1/27 32/1/27 30/1/27 2/1/27
f 17/1/22 45/1/22 46/1/22 18/1/22
f 3/1/28 31/1/28 33/1/28 5/1/28
f 18/1/29 46/1/29 47/1/29 19/1/29
f 5/1/30 33/1/30 34/1/30 6/1/30
f 19/1/28 47/1/28 48/1/28 20/1/28
f 6/1/31 34/1/31 35/1/31 7/1/31
f 20/1/32 48/1/32 49/1/32 21/1/32
f 7/1/33 35/1/33 36/1/33 8/1/33
