# Blender 4.2.1 LTS
# www.blender.org
mtllib Planalto_Roof.mtl
o Plane
v -3.968472 0.000000 -3.232277
v -4.069915 0.000000 5.202886
v -3.953777 0.000000 -5.232277
v -3.452708 0.000000 -4.556288
v -0.013983 0.000000 -4.482811
v 0.515051 0.000000 -5.158800
v 0.544442 0.000000 5.069202
v 0.000712 0.000000 4.378518
v -3.496794 0.000000 4.481386
v -3.968472 0.119404 -3.232277
v -4.069915 0.119404 5.202886
v -3.953777 0.119404 -5.232277
v -3.452708 0.119404 -4.556288
v -0.013983 0.119404 -4.482811
v 0.515051 0.119404 -5.158800
v 0.544442 0.119404 5.069202
v 0.000712 0.119404 4.378518
v -3.496794 0.119404 4.481386
vn -0.0000 -1.0000 -0.0000
vn -0.0000 1.0000 -0.0000
vn 0.8034 -0.0000 -0.5955
vn -1.0000 -0.0000 -0.0073
vn 0.0294 -0.0000 0.9996
vn -0.7875 -0.0000 -0.6163
vn -0.9999 -0.0000 -0.0120
vn 0.7830 -0.0000 0.6220
vn 1.0000 -0.0000 -0.0029
vn 0.0214 -0.0000 -0.9998
vn -0.7857 -0.0000 0.6186
vt 0.000000 0.000000
s 0
f 5/1/1 8/1/1 1/1/1
f 1/1/1 3/1/1 4/1/1
f 5/1/1 6/1/1 8/1/1
f 6/1/1 7/1/1 8/1/1
f 1/1/1 4/1/1 5/1/1
f 9/1/1 2/1/1 1/1/1
f 8/1/1 9/1/1 1/1/1
f 14/1/2 10/1/2 17/1/2
f 10/1/2 13/1/2 12/1/2
f 14/1/2 17/1/2 15/1/2
f 15/1/2 17/1/2 16/1/2
f 10/1/2 14/1/2 13/1/2
f 18/1/2 10/1/2 11/1/2
f 17/1/2 10/1/2 18/1/2
f 3/1/3 12/1/3 13/1/3 4/1/3
f 1/1/4 10/1/4 12/1/4 3/1/4
f 8/1/5 17/1/5 18/1/5 9/1/5
f 5/1/6 14/1/6 15/1/6 6/1/6
f 2/1/7 11/1/7 10/1/7 1/1/7
f 9/1/8 18/1/8 11/1/8 2/1/8
f 6/1/9 15/1/9 16/1/9 7/1/9
f 4/1/10 13/1/10 14/1/10 5/1/10
f 7/1/11 16/1/11 17/1/11 8/1/11
